# xmcd CD database file
#
# Track frame offsets:
#	150
#	24086
#	49015
#	76056
#	103117
#	125328
#
# Disc length: 2013 seconds
#
# Revision: 0
# Processed by: cddbd v1.4PL0 Copyright (c) Steve Scherf et al.
# Submitted via: CDex 1.50Beta7
#
DISCID=3a07db06
DTITLE=ben webster - midnite collection
DYEAR=2000
DGENRE=Blues
TTITLE0=benny´s tune
TTITLE1=once in a while
TTITLE2=ben´s blues
TTITLE3=sweet lorraine
TTITLE4=hymn to freedom
TTITLE5=st.louis blues
EXTD=YEAR: 2000
EXTT0=
EXTT1=
EXTT2=
EXTT3=
EXTT4=
EXTT5=
PLAYORDER=
